<svg xmlns="http://www.w3.org/2000/svg" xmlns:xlink="http://www.w3.org/1999/xlink" width="544" zoomAndPan="magnify" viewBox="0 0 408 413.999985" height="552" preserveAspectRatio="xMidYMid meet" version="1.0"><defs><clipPath id="6a4fa927cb"><path d="M 126 137 L 282 137 L 282 277 L 126 277 Z M 126 137 " clip-rule="nonzero"/></clipPath><clipPath id="39fd24e81f"><path d="M 98.441406 239.882812 L 180.832031 98.660156 L 309.746094 173.867188 L 227.359375 315.09375 Z M 98.441406 239.882812 " clip-rule="nonzero"/></clipPath><clipPath id="43b9c3eec8"><path d="M 227.316406 315.070312 L 309.707031 173.84375 L 180.792969 98.636719 L 98.402344 239.859375 Z M 227.316406 315.070312 " clip-rule="nonzero"/></clipPath><clipPath id="c9b31eae51"><path d="M 227.316406 315.070312 L 309.707031 173.84375 L 180.792969 98.636719 L 98.402344 239.859375 Z M 227.316406 315.070312 " clip-rule="nonzero"/></clipPath><clipPath id="6fae45ca24"><path d="M 155 238 L 194 238 L 194 277 L 155 277 Z M 155 238 " clip-rule="nonzero"/></clipPath><clipPath id="67fdf2ec7d"><path d="M 98.441406 239.882812 L 180.832031 98.660156 L 309.746094 173.867188 L 227.359375 315.09375 Z M 98.441406 239.882812 " clip-rule="nonzero"/></clipPath><clipPath id="e114c62d90"><path d="M 227.316406 315.070312 L 309.707031 173.84375 L 180.792969 98.636719 L 98.402344 239.859375 Z M 227.316406 315.070312 " clip-rule="nonzero"/></clipPath><clipPath id="a4fe8fd711"><path d="M 227.316406 315.070312 L 309.707031 173.84375 L 180.792969 98.636719 L 98.402344 239.859375 Z M 227.316406 315.070312 " clip-rule="nonzero"/></clipPath><clipPath id="927442010c"><path d="M 126 138 L 282 138 L 282 278 L 126 278 Z M 126 138 " clip-rule="nonzero"/></clipPath><clipPath id="fc189724d1"><path d="M 99.144531 242.566406 L 178.59375 99.667969 L 309.039062 172.191406 L 229.589844 315.089844 Z M 99.144531 242.566406 " clip-rule="nonzero"/></clipPath><clipPath id="8cec525232"><path d="M 178.445312 99.933594 L 98.996094 242.832031 L 229.441406 315.359375 L 308.890625 172.460938 Z M 178.445312 99.933594 " clip-rule="nonzero"/></clipPath><clipPath id="d8e1330cb1"><path d="M 178.445312 99.933594 L 98.996094 242.832031 L 229.441406 315.359375 L 308.890625 172.460938 Z M 178.445312 99.933594 " clip-rule="nonzero"/></clipPath><clipPath id="ad4147bdcc"><path d="M 213 137 L 252 137 L 252 176 L 213 176 Z M 213 137 " clip-rule="nonzero"/></clipPath><clipPath id="0ca00fdaa4"><path d="M 99.144531 242.566406 L 178.59375 99.667969 L 309.039062 172.191406 L 229.589844 315.089844 Z M 99.144531 242.566406 " clip-rule="nonzero"/></clipPath><clipPath id="fab9dcfe63"><path d="M 178.445312 99.933594 L 98.996094 242.832031 L 229.441406 315.359375 L 308.890625 172.460938 Z M 178.445312 99.933594 " clip-rule="nonzero"/></clipPath><clipPath id="9baa4e3889"><path d="M 178.445312 99.933594 L 98.996094 242.832031 L 229.441406 315.359375 L 308.890625 172.460938 Z M 178.445312 99.933594 " clip-rule="nonzero"/></clipPath></defs><path fill="#6366f1" d="M 193.675781 258.199219 C 193.710938 259.453125 193.621094 260.695312 193.40625 261.929688 C 193.191406 263.164062 192.855469 264.367188 192.402344 265.535156 C 191.949219 266.703125 191.382812 267.8125 190.707031 268.871094 C 190.03125 269.925781 189.257812 270.902344 188.382812 271.804688 C 187.511719 272.703125 186.5625 273.503906 185.53125 274.210938 C 184.496094 274.917969 183.40625 275.515625 182.253906 276.003906 C 181.101562 276.492188 179.910156 276.859375 178.683594 277.109375 C 177.457031 277.359375 176.21875 277.484375 174.96875 277.484375 C 173.714844 277.488281 172.476562 277.363281 171.25 277.113281 C 170.023438 276.863281 168.835938 276.496094 167.679688 276.007812 C 166.527344 275.519531 165.4375 274.921875 164.40625 274.214844 C 163.375 273.507812 162.421875 272.703125 161.550781 271.804688 C 160.679688 270.90625 159.902344 269.925781 159.226562 268.871094 C 158.550781 267.816406 157.984375 266.703125 157.527344 265.535156 C 157.074219 264.367188 156.742188 263.167969 156.527344 261.933594 C 156.3125 260.695312 156.222656 259.453125 156.261719 258.199219 C 156.300781 254.945312 157.195312 251.753906 158.863281 248.960938 C 160.523438 246.164062 162.894531 243.859375 165.730469 242.277344 C 165.617188 242.785156 166.148438 242.019531 165.730469 242.277344 L 174.417969 234.570312 C 176.125 232.757812 177.644531 230.800781 178.984375 228.703125 C 180.320312 226.601562 181.449219 224.394531 182.371094 222.082031 C 183.292969 219.773438 183.988281 217.394531 184.460938 214.949219 C 184.933594 212.507812 185.171875 210.042969 185.179688 207.554688 C 185.179688 193.90625 177.1875 180.03125 165.699219 172.773438 C 166.140625 173.03125 165.53125 172.335938 165.699219 172.773438 C 162.8125 171.160156 160.527344 168.929688 158.839844 166.089844 C 157.144531 163.242188 156.277344 160.164062 156.238281 156.855469 C 156.203125 155.601562 156.292969 154.359375 156.507812 153.121094 C 156.722656 151.886719 157.054688 150.6875 157.507812 149.515625 C 157.964844 148.347656 158.53125 147.238281 159.207031 146.179688 C 159.882812 145.125 160.65625 144.148438 161.527344 143.246094 C 162.398438 142.347656 163.351562 141.546875 164.382812 140.839844 C 165.414062 140.132812 166.507812 139.535156 167.660156 139.046875 C 168.808594 138.558594 170 138.191406 171.226562 137.941406 C 172.449219 137.691406 173.6875 137.566406 174.941406 137.5625 C 176.191406 137.5625 177.429688 137.6875 178.660156 137.9375 C 179.886719 138.183594 181.074219 138.554688 182.226562 139.042969 C 183.378906 139.527344 184.472656 140.128906 185.503906 140.835938 C 186.535156 141.542969 187.488281 142.347656 188.355469 143.246094 C 189.230469 144.144531 190.003906 145.121094 190.683594 146.175781 C 191.359375 147.234375 191.925781 148.34375 192.382812 149.511719 C 192.835938 150.679688 193.167969 151.882812 193.382812 153.117188 C 193.597656 154.351562 193.683594 155.597656 193.648438 156.851562 C 193.660156 159.359375 193.910156 161.847656 194.394531 164.308594 C 194.875 166.773438 195.589844 169.167969 196.527344 171.496094 C 197.464844 173.824219 198.613281 176.046875 199.972656 178.15625 C 201.332031 180.265625 202.878906 182.230469 204.613281 184.050781 L 208.429688 187.78125 C 209.953125 189.113281 211.550781 190.351562 213.210938 191.503906 C 216.113281 193.042969 218.546875 195.355469 220.238281 198.179688 C 220.554688 198.703125 220.84375 199.246094 221.101562 199.800781 C 221.363281 200.359375 221.59375 200.925781 221.796875 201.503906 C 222.003906 202.085938 222.175781 202.671875 222.320312 203.269531 C 222.460938 203.867188 222.574219 204.46875 222.660156 205.078125 C 222.742188 205.683594 222.792969 206.296875 222.8125 206.910156 C 222.835938 207.523438 222.824219 208.136719 222.78125 208.75 C 222.742188 209.359375 222.667969 209.96875 222.566406 210.574219 C 222.460938 211.179688 222.328125 211.777344 222.164062 212.371094 C 222 212.960938 221.808594 213.542969 221.585938 214.117188 C 221.363281 214.6875 221.113281 215.246094 220.832031 215.792969 C 220.554688 216.339844 220.246094 216.871094 219.914062 217.386719 C 219.578125 217.902344 219.222656 218.402344 218.835938 218.882812 C 218.453125 219.359375 218.046875 219.820312 217.617188 220.257812 C 217.1875 220.695312 216.734375 221.113281 216.261719 221.503906 C 215.789062 221.898438 215.300781 222.265625 214.789062 222.609375 C 214.28125 222.953125 213.753906 223.269531 213.210938 223.558594 C 213.367188 223.246094 212.917969 223.726562 213.210938 223.558594 C 210.277344 225.410156 207.617188 227.59375 205.226562 230.105469 C 202.835938 232.617188 200.789062 235.386719 199.085938 238.40625 C 197.378906 241.429688 196.070312 244.617188 195.152344 247.96875 C 194.238281 251.316406 193.746094 254.730469 193.675781 258.199219 Z M 214.617188 156.792969 C 214.617188 160.507812 215.714844 164.140625 217.777344 167.226562 C 218.800781 168.769531 220.03125 170.128906 221.460938 171.304688 C 222.890625 172.484375 224.464844 173.429688 226.175781 174.140625 C 227.027344 174.492188 227.898438 174.78125 228.789062 175.007812 C 229.683594 175.230469 230.589844 175.386719 231.503906 175.480469 C 232.421875 175.570312 233.339844 175.59375 234.257812 175.546875 C 235.179688 175.5 236.089844 175.386719 236.996094 175.207031 C 237.898438 175.027344 238.78125 174.78125 239.648438 174.472656 C 240.515625 174.160156 241.355469 173.785156 242.164062 173.351562 C 242.976562 172.914062 243.75 172.421875 244.488281 171.871094 C 245.226562 171.320312 245.921875 170.722656 246.570312 170.066406 C 247.222656 169.414062 247.820312 168.714844 248.367188 167.972656 C 248.917969 167.230469 249.40625 166.453125 249.839844 165.636719 C 250.273438 164.824219 250.648438 163.980469 250.957031 163.113281 C 251.265625 162.242188 251.511719 161.355469 251.691406 160.449219 C 251.871094 159.546875 251.984375 158.632812 252.027344 157.710938 C 252.074219 156.789062 252.050781 155.871094 251.960938 154.953125 C 251.871094 154.035156 251.714844 153.128906 251.492188 152.234375 C 251.269531 151.339844 250.980469 150.464844 250.628906 149.613281 C 249.921875 147.898438 248.980469 146.324219 247.808594 144.890625 C 246.632812 143.453125 245.273438 142.222656 243.734375 141.1875 C 242.84375 140.589844 241.90625 140.074219 240.921875 139.636719 C 239.941406 139.199219 238.929688 138.851562 237.886719 138.589844 C 236.84375 138.328125 235.785156 138.160156 234.714844 138.078125 C 233.640625 138 232.570312 138.015625 231.5 138.121094 C 230.429688 138.226562 229.378906 138.421875 228.34375 138.710938 C 227.308594 138.996094 226.304688 139.371094 225.332031 139.832031 C 224.363281 140.292969 223.4375 140.832031 222.558594 141.453125 C 221.683594 142.074219 220.863281 142.761719 220.105469 143.523438 C 218.351562 145.289062 216.996094 147.320312 216.046875 149.617188 C 215.097656 151.914062 214.621094 154.308594 214.617188 156.792969 Z M 233.335938 239.425781 C 229.636719 239.425781 226.015625 240.527344 222.9375 242.589844 C 221.398438 243.621094 220.039062 244.855469 218.867188 246.292969 C 217.691406 247.726562 216.75 249.300781 216.042969 251.011719 C 215.691406 251.867188 215.402344 252.738281 215.179688 253.636719 C 214.957031 254.53125 214.800781 255.4375 214.710938 256.355469 C 214.621094 257.273438 214.597656 258.195312 214.644531 259.113281 C 214.6875 260.035156 214.800781 260.949219 214.980469 261.855469 C 215.160156 262.761719 215.40625 263.648438 215.714844 264.515625 C 216.023438 265.386719 216.398438 266.226562 216.832031 267.042969 C 217.265625 267.855469 217.753906 268.636719 218.304688 269.378906 C 218.851562 270.121094 219.453125 270.820312 220.101562 271.472656 C 220.75 272.125 221.445312 272.726562 222.183594 273.277344 C 222.921875 273.828125 223.695312 274.320312 224.507812 274.757812 C 225.316406 275.191406 226.15625 275.566406 227.023438 275.878906 C 227.890625 276.1875 228.773438 276.433594 229.679688 276.613281 C 230.582031 276.792969 231.492188 276.90625 232.414062 276.953125 C 233.332031 277 234.25 276.976562 235.167969 276.886719 C 236.085938 276.792969 236.988281 276.636719 237.882812 276.414062 C 238.773438 276.1875 239.648438 275.898438 240.496094 275.546875 C 242.210938 274.832031 243.78125 273.886719 245.214844 272.707031 C 246.644531 271.53125 247.875 270.167969 248.902344 268.625 C 249.496094 267.726562 250.015625 266.785156 250.449219 265.800781 C 250.882812 264.816406 251.230469 263.800781 251.492188 262.753906 C 251.753906 261.710938 251.921875 260.648438 252 259.578125 C 252.078125 258.503906 252.066406 257.429688 251.960938 256.359375 C 251.855469 255.285156 251.660156 254.230469 251.371094 253.191406 C 251.085938 252.15625 250.710938 251.148438 250.253906 250.175781 C 249.792969 249.199219 249.253906 248.273438 248.632812 247.390625 C 248.015625 246.507812 247.324219 245.683594 246.566406 244.921875 C 244.816406 243.164062 242.792969 241.808594 240.5 240.851562 C 238.207031 239.898438 235.820312 239.421875 233.335938 239.417969 Z M 281.226562 207.496094 C 281.226562 203.785156 280.128906 200.15625 278.074219 197.066406 C 277.046875 195.527344 275.820312 194.164062 274.386719 192.988281 C 272.957031 191.808594 271.386719 190.863281 269.675781 190.152344 C 268.824219 189.796875 267.953125 189.507812 267.058594 189.285156 C 266.164062 189.058594 265.261719 188.902344 264.34375 188.8125 C 263.425781 188.71875 262.507812 188.699219 261.589844 188.742188 C 260.667969 188.789062 259.757812 188.902344 258.851562 189.082031 C 257.949219 189.261719 257.0625 189.507812 256.195312 189.820312 C 255.332031 190.128906 254.492188 190.503906 253.679688 190.9375 C 252.867188 191.375 252.09375 191.867188 251.355469 192.417969 C 250.617188 192.96875 249.921875 193.570312 249.273438 194.222656 C 248.625 194.878906 248.023438 195.578125 247.476562 196.320312 C 246.925781 197.0625 246.4375 197.839844 246.003906 198.65625 C 245.570312 199.46875 245.195312 200.3125 244.886719 201.179688 C 244.578125 202.050781 244.332031 202.9375 244.152344 203.84375 C 243.972656 204.746094 243.859375 205.660156 243.816406 206.582031 C 243.769531 207.503906 243.792969 208.421875 243.882812 209.339844 C 243.972656 210.261719 244.128906 211.167969 244.351562 212.0625 C 244.574219 212.957031 244.863281 213.832031 245.214844 214.683594 C 245.921875 216.398438 246.863281 217.972656 248.039062 219.40625 C 249.210938 220.839844 250.570312 222.074219 252.109375 223.109375 C 253.648438 224.136719 255.300781 224.921875 257.074219 225.460938 C 258.84375 226 260.65625 226.269531 262.507812 226.269531 C 264.992188 226.265625 267.378906 225.789062 269.671875 224.832031 C 271.964844 223.878906 273.988281 222.523438 275.738281 220.765625 C 277.492188 219.003906 278.847656 216.972656 279.796875 214.671875 C 280.75 212.371094 281.226562 209.980469 281.226562 207.492188 Z M 281.226562 207.496094 " fill-opacity="1" fill-rule="nonzero"/><path fill="#6366f1" d="M 145.792969 188.722656 C 142.085938 188.722656 138.472656 189.824219 135.394531 191.886719 C 133.851562 192.921875 132.496094 194.15625 131.320312 195.589844 C 130.144531 197.027344 129.203125 198.601562 128.5 200.3125 C 128.148438 201.167969 127.859375 202.042969 127.636719 202.9375 C 127.414062 203.832031 127.257812 204.738281 127.167969 205.65625 C 127.078125 206.574219 127.054688 207.492188 127.101562 208.414062 C 127.144531 209.335938 127.257812 210.25 127.4375 211.152344 C 127.617188 212.058594 127.859375 212.945312 128.171875 213.816406 C 128.480469 214.683594 128.851562 215.527344 129.285156 216.339844 C 129.71875 217.152344 130.210938 217.933594 130.757812 218.675781 C 131.308594 219.417969 131.90625 220.117188 132.558594 220.769531 C 133.207031 221.421875 133.902344 222.023438 134.640625 222.570312 C 135.378906 223.121094 136.152344 223.613281 136.964844 224.046875 C 137.777344 224.480469 138.613281 224.855469 139.480469 225.164062 C 140.347656 225.476562 141.234375 225.722656 142.136719 225.902344 C 143.039062 226.082031 143.949219 226.195312 144.867188 226.238281 C 145.789062 226.285156 146.707031 226.265625 147.621094 226.175781 C 148.539062 226.085938 149.445312 225.929688 150.335938 225.707031 C 151.230469 225.480469 152.101562 225.195312 152.953125 224.84375 C 154.664062 224.128906 156.234375 223.183594 157.667969 222.007812 C 159.097656 220.828125 160.324219 219.46875 161.351562 217.925781 C 161.949219 217.027344 162.464844 216.089844 162.898438 215.101562 C 163.332031 214.117188 163.679688 213.101562 163.941406 212.058594 C 164.203125 211.015625 164.371094 209.953125 164.449219 208.882812 C 164.527344 207.808594 164.515625 206.734375 164.410156 205.664062 C 164.304688 204.59375 164.105469 203.539062 163.820312 202.5 C 163.535156 201.460938 163.160156 200.457031 162.703125 199.484375 C 162.242188 198.507812 161.703125 197.582031 161.085938 196.699219 C 160.464844 195.820312 159.777344 194.996094 159.015625 194.234375 C 157.265625 192.472656 155.246094 191.117188 152.953125 190.164062 C 150.660156 189.210938 148.273438 188.730469 145.792969 188.722656 Z M 145.792969 188.722656 " fill-opacity="1" fill-rule="nonzero"/><path fill="#6366f1" d="M 214.320312 258.199219 C 214.285156 259.453125 214.375 260.695312 214.589844 261.929688 C 214.804688 263.164062 215.136719 264.367188 215.59375 265.535156 C 216.046875 266.703125 216.613281 267.8125 217.289062 268.871094 C 217.964844 269.925781 218.738281 270.902344 219.609375 271.804688 C 220.480469 272.703125 221.433594 273.503906 222.464844 274.210938 C 223.496094 274.917969 224.589844 275.515625 225.742188 276.003906 C 226.894531 276.492188 228.082031 276.859375 229.308594 277.109375 C 230.535156 277.359375 231.777344 277.484375 233.027344 277.484375 C 234.277344 277.488281 235.519531 277.363281 236.746094 277.113281 C 237.972656 276.863281 239.160156 276.496094 240.3125 276.007812 C 241.464844 275.519531 242.558594 274.921875 243.589844 274.214844 C 244.621094 273.507812 245.574219 272.703125 246.441406 271.804688 C 247.316406 270.90625 248.089844 269.925781 248.769531 268.871094 C 249.445312 267.816406 250.011719 266.703125 250.464844 265.535156 C 250.921875 264.367188 251.253906 263.167969 251.46875 261.933594 C 251.683594 260.695312 251.769531 259.453125 251.734375 258.199219 C 251.695312 254.945312 250.800781 251.753906 249.132812 248.960938 C 247.46875 246.164062 245.101562 243.859375 242.265625 242.277344 C 242.378906 242.785156 241.847656 242.019531 242.265625 242.277344 L 233.578125 234.570312 C 231.871094 232.757812 230.347656 230.800781 229.011719 228.703125 C 227.675781 226.601562 226.546875 224.394531 225.625 222.082031 C 224.703125 219.773438 224.007812 217.394531 223.535156 214.949219 C 223.0625 212.507812 222.824219 210.042969 222.816406 207.554688 C 222.816406 193.90625 230.808594 180.03125 242.292969 172.773438 C 241.855469 173.03125 242.464844 172.335938 242.292969 172.773438 C 245.183594 171.160156 247.46875 168.929688 249.15625 166.089844 C 250.851562 163.242188 251.71875 160.164062 251.757812 156.855469 C 251.792969 155.601562 251.703125 154.359375 251.488281 153.121094 C 251.273438 151.886719 250.941406 150.6875 250.484375 149.515625 C 250.03125 148.347656 249.464844 147.238281 248.789062 146.179688 C 248.113281 145.125 247.339844 144.148438 246.464844 143.246094 C 245.59375 142.347656 244.644531 141.546875 243.613281 140.839844 C 242.582031 140.132812 241.488281 139.535156 240.335938 139.046875 C 239.183594 138.558594 237.996094 138.191406 236.769531 137.941406 C 235.542969 137.691406 234.304688 137.566406 233.054688 137.5625 C 231.804688 137.5625 230.5625 137.6875 229.335938 137.9375 C 228.109375 138.183594 226.921875 138.554688 225.769531 139.042969 C 224.617188 139.527344 223.523438 140.128906 222.492188 140.835938 C 221.460938 141.542969 220.507812 142.347656 219.640625 143.246094 C 218.765625 144.144531 217.988281 145.121094 217.3125 146.175781 C 216.632812 147.234375 216.070312 148.34375 215.613281 149.511719 C 215.160156 150.679688 214.824219 151.882812 214.613281 153.117188 C 214.398438 154.351562 214.308594 155.597656 214.347656 156.851562 C 214.335938 159.359375 214.085938 161.847656 213.601562 164.308594 C 213.117188 166.773438 212.40625 169.167969 211.46875 171.496094 C 210.53125 173.824219 209.382812 176.046875 208.019531 178.15625 C 206.660156 180.265625 205.117188 182.230469 203.382812 184.050781 L 199.566406 187.78125 C 198.042969 189.113281 196.445312 190.351562 194.78125 191.503906 C 191.882812 193.042969 189.449219 195.355469 187.757812 198.179688 C 187.441406 198.703125 187.152344 199.246094 186.894531 199.800781 C 186.632812 200.359375 186.398438 200.925781 186.195312 201.503906 C 185.992188 202.085938 185.820312 202.671875 185.675781 203.269531 C 185.53125 203.867188 185.417969 204.46875 185.335938 205.078125 C 185.253906 205.683594 185.203125 206.296875 185.183594 206.910156 C 185.160156 207.523438 185.171875 208.136719 185.210938 208.75 C 185.253906 209.359375 185.328125 209.96875 185.429688 210.574219 C 185.53125 211.179688 185.667969 211.777344 185.828125 212.371094 C 185.992188 212.960938 186.1875 213.542969 186.410156 214.117188 C 186.632812 214.6875 186.882812 215.246094 187.164062 215.792969 C 187.441406 216.339844 187.75 216.871094 188.082031 217.386719 C 188.414062 217.902344 188.773438 218.402344 189.15625 218.882812 C 189.542969 219.359375 189.949219 219.820312 190.378906 220.257812 C 190.808594 220.695312 191.261719 221.113281 191.734375 221.503906 C 192.203125 221.898438 192.695312 222.265625 193.207031 222.609375 C 193.714844 222.953125 194.242188 223.269531 194.78125 223.558594 C 194.628906 223.246094 195.078125 223.726562 194.78125 223.558594 C 197.71875 225.410156 200.378906 227.59375 202.769531 230.105469 C 205.160156 232.617188 207.207031 235.386719 208.910156 238.40625 C 210.613281 241.429688 211.925781 244.617188 212.839844 247.96875 C 213.757812 251.316406 214.25 254.730469 214.320312 258.199219 Z M 193.375 156.792969 C 193.375 160.507812 192.277344 164.140625 190.21875 167.226562 C 189.191406 168.769531 187.964844 170.128906 186.535156 171.304688 C 185.101562 172.484375 183.53125 173.429688 181.820312 174.140625 C 180.96875 174.492188 180.097656 174.78125 179.203125 175.007812 C 178.3125 175.230469 177.40625 175.386719 176.492188 175.480469 C 175.574219 175.570312 174.65625 175.59375 173.734375 175.546875 C 172.816406 175.5 171.902344 175.386719 171 175.207031 C 170.097656 175.027344 169.210938 174.78125 168.347656 174.472656 C 167.480469 174.160156 166.640625 173.785156 165.828125 173.351562 C 165.019531 172.914062 164.242188 172.421875 163.503906 171.871094 C 162.765625 171.320312 162.074219 170.722656 161.425781 170.066406 C 160.773438 169.414062 160.175781 168.714844 159.625 167.972656 C 159.078125 167.230469 158.585938 166.453125 158.152344 165.636719 C 157.71875 164.824219 157.347656 163.980469 157.039062 163.113281 C 156.730469 162.242188 156.484375 161.355469 156.304688 160.449219 C 156.125 159.546875 156.011719 158.632812 155.96875 157.710938 C 155.921875 156.789062 155.945312 155.871094 156.035156 154.953125 C 156.125 154.035156 156.28125 153.128906 156.503906 152.234375 C 156.726562 151.339844 157.015625 150.464844 157.367188 149.613281 C 158.074219 147.898438 159.011719 146.324219 160.1875 144.890625 C 161.363281 143.453125 162.71875 142.222656 164.261719 141.1875 C 165.152344 140.589844 166.089844 140.074219 167.074219 139.636719 C 168.054688 139.199219 169.066406 138.851562 170.109375 138.589844 C 171.152344 138.328125 172.210938 138.160156 173.28125 138.078125 C 174.355469 138 175.425781 138.015625 176.496094 138.121094 C 177.566406 138.226562 178.617188 138.421875 179.652344 138.710938 C 180.6875 138.996094 181.691406 139.371094 182.664062 139.832031 C 183.632812 140.292969 184.558594 140.832031 185.433594 141.453125 C 186.3125 142.074219 187.128906 142.761719 187.886719 143.523438 C 189.644531 145.289062 190.996094 147.320312 191.949219 149.617188 C 192.898438 151.914062 193.375 154.308594 193.375 156.792969 Z M 174.660156 239.425781 C 178.359375 239.425781 181.980469 240.527344 185.058594 242.589844 C 186.597656 243.621094 187.957031 244.855469 189.128906 246.292969 C 190.304688 247.726562 191.246094 249.300781 191.953125 251.011719 C 192.304688 251.867188 192.589844 252.738281 192.816406 253.636719 C 193.039062 254.53125 193.195312 255.4375 193.285156 256.355469 C 193.375 257.273438 193.398438 258.195312 193.351562 259.113281 C 193.308594 260.035156 193.195312 260.949219 193.015625 261.855469 C 192.835938 262.761719 192.589844 263.648438 192.28125 264.515625 C 191.96875 265.386719 191.597656 266.226562 191.164062 267.042969 C 190.730469 267.855469 190.238281 268.636719 189.691406 269.378906 C 189.144531 270.121094 188.542969 270.820312 187.894531 271.472656 C 187.242188 272.125 186.550781 272.726562 185.8125 273.277344 C 185.074219 273.828125 184.300781 274.320312 183.488281 274.757812 C 182.675781 275.191406 181.839844 275.566406 180.972656 275.878906 C 180.105469 276.1875 179.21875 276.433594 178.316406 276.613281 C 177.414062 276.792969 176.503906 276.90625 175.582031 276.953125 C 174.664062 277 173.746094 276.976562 172.828125 276.886719 C 171.910156 276.792969 171.007812 276.636719 170.113281 276.414062 C 169.21875 276.1875 168.347656 275.898438 167.496094 275.546875 C 165.785156 274.832031 164.210938 273.886719 162.78125 272.707031 C 161.347656 271.53125 160.121094 270.167969 159.09375 268.625 C 158.496094 267.726562 157.980469 266.785156 157.546875 265.800781 C 157.113281 264.816406 156.761719 263.800781 156.503906 262.753906 C 156.242188 261.710938 156.074219 260.648438 155.992188 259.578125 C 155.914062 258.503906 155.929688 257.429688 156.035156 256.359375 C 156.140625 255.285156 156.335938 254.230469 156.621094 253.191406 C 156.910156 252.15625 157.28125 251.148438 157.742188 250.175781 C 158.203125 249.199219 158.742188 248.273438 159.359375 247.390625 C 159.980469 246.507812 160.667969 245.683594 161.429688 244.921875 C 163.179688 243.164062 165.203125 241.808594 167.496094 240.851562 C 169.789062 239.898438 172.175781 239.421875 174.660156 239.417969 Z M 126.769531 207.496094 C 126.769531 203.785156 127.867188 200.15625 129.921875 197.066406 C 130.949219 195.527344 132.175781 194.164062 133.605469 192.988281 C 135.039062 191.808594 136.609375 190.863281 138.320312 190.152344 C 139.171875 189.796875 140.042969 189.507812 140.9375 189.285156 C 141.828125 189.058594 142.734375 188.902344 143.652344 188.8125 C 144.570312 188.71875 145.488281 188.699219 146.40625 188.742188 C 147.328125 188.789062 148.238281 188.902344 149.144531 189.082031 C 150.046875 189.261719 150.929688 189.507812 151.796875 189.820312 C 152.664062 190.128906 153.503906 190.503906 154.316406 190.9375 C 155.125 191.375 155.902344 191.867188 156.640625 192.417969 C 157.378906 192.96875 158.070312 193.570312 158.71875 194.222656 C 159.371094 194.878906 159.972656 195.578125 160.519531 196.320312 C 161.066406 197.0625 161.558594 197.839844 161.992188 198.65625 C 162.425781 199.46875 162.796875 200.3125 163.109375 201.179688 C 163.417969 202.050781 163.664062 202.9375 163.84375 203.84375 C 164.023438 204.746094 164.132812 205.660156 164.179688 206.582031 C 164.226562 207.503906 164.203125 208.421875 164.113281 209.339844 C 164.023438 210.261719 163.867188 211.167969 163.644531 212.0625 C 163.417969 212.957031 163.132812 213.832031 162.78125 214.683594 C 162.074219 216.398438 161.132812 217.972656 159.957031 219.40625 C 158.785156 220.839844 157.425781 222.074219 155.886719 223.109375 C 154.347656 224.136719 152.691406 224.921875 150.921875 225.460938 C 149.148438 226 147.339844 226.269531 145.488281 226.269531 C 143.003906 226.265625 140.617188 225.789062 138.324219 224.832031 C 136.03125 223.878906 134.007812 222.523438 132.257812 220.765625 C 130.5 219.003906 129.148438 216.972656 128.195312 214.671875 C 127.246094 212.371094 126.769531 209.980469 126.769531 207.492188 Z M 126.769531 207.496094 " fill-opacity="1" fill-rule="nonzero"/><path fill="#6366f1" d="M 262.203125 188.722656 C 265.910156 188.722656 269.523438 189.824219 272.601562 191.886719 C 274.144531 192.921875 275.5 194.15625 276.675781 195.589844 C 277.851562 197.027344 278.789062 198.601562 279.496094 200.3125 C 279.847656 201.167969 280.136719 202.042969 280.359375 202.9375 C 280.582031 203.832031 280.738281 204.738281 280.828125 205.65625 C 280.917969 206.574219 280.941406 207.492188 280.894531 208.414062 C 280.851562 209.335938 280.738281 210.25 280.558594 211.152344 C 280.378906 212.058594 280.132812 212.945312 279.824219 213.816406 C 279.515625 214.683594 279.140625 215.527344 278.707031 216.339844 C 278.273438 217.152344 277.785156 217.933594 277.234375 218.675781 C 276.6875 219.417969 276.089844 220.117188 275.4375 220.769531 C 274.789062 221.421875 274.09375 222.023438 273.355469 222.570312 C 272.617188 223.121094 271.84375 223.613281 271.03125 224.046875 C 270.21875 224.480469 269.378906 224.855469 268.515625 225.164062 C 267.648438 225.476562 266.761719 225.722656 265.859375 225.902344 C 264.957031 226.082031 264.046875 226.195312 263.125 226.238281 C 262.207031 226.285156 261.289062 226.265625 260.371094 226.175781 C 259.457031 226.085938 258.550781 225.929688 257.660156 225.707031 C 256.765625 225.480469 255.894531 225.195312 255.042969 224.84375 C 253.332031 224.128906 251.757812 223.183594 250.328125 222.007812 C 248.898438 220.828125 247.667969 219.46875 246.644531 217.925781 C 246.046875 217.027344 245.53125 216.089844 245.097656 215.101562 C 244.664062 214.117188 244.316406 213.101562 244.054688 212.058594 C 243.792969 211.015625 243.625 209.953125 243.546875 208.882812 C 243.46875 207.808594 243.480469 206.734375 243.585938 205.664062 C 243.691406 204.59375 243.886719 203.539062 244.175781 202.5 C 244.460938 201.460938 244.835938 200.457031 245.292969 199.484375 C 245.753906 198.507812 246.292969 197.582031 246.910156 196.699219 C 247.53125 195.820312 248.21875 194.996094 248.980469 194.234375 C 250.730469 192.472656 252.75 191.117188 255.042969 190.164062 C 257.332031 189.210938 259.722656 188.730469 262.203125 188.722656 Z M 262.203125 188.722656 " fill-opacity="1" fill-rule="nonzero"/><g clip-path="url(#6a4fa927cb)"><g clip-path="url(#39fd24e81f)"><g clip-path="url(#43b9c3eec8)"><g clip-path="url(#c9b31eae51)"><path fill="#6366f1" d="M 155.003906 190.363281 C 153.941406 189.703125 152.820312 189.152344 151.648438 188.71875 C 150.472656 188.28125 149.265625 187.964844 148.027344 187.769531 C 146.789062 187.570312 145.546875 187.5 144.292969 187.550781 C 143.039062 187.605469 141.804688 187.78125 140.585938 188.078125 C 139.375 188.378906 138.199219 188.796875 137.070312 189.332031 C 135.941406 189.867188 134.875 190.511719 133.871094 191.257812 C 132.871094 192.007812 131.953125 192.851562 131.117188 193.785156 C 130.285156 194.71875 129.550781 195.722656 128.921875 196.804688 C 128.289062 197.886719 127.773438 199.019531 127.367188 200.203125 C 126.964844 201.386719 126.683594 202.601562 126.523438 203.84375 C 126.367188 205.085938 126.332031 206.328125 126.421875 207.578125 C 126.515625 208.824219 126.726562 210.050781 127.066406 211.253906 C 127.402344 212.460938 127.859375 213.625 128.429688 214.742188 C 129 215.859375 129.671875 216.90625 130.453125 217.890625 C 131.234375 218.871094 132.101562 219.765625 133.0625 220.570312 C 134.019531 221.378906 135.050781 222.082031 136.152344 222.683594 C 138.984375 224.285156 142.1875 225.125 145.441406 225.089844 C 148.699219 225.0625 151.882812 224.179688 154.675781 222.527344 C 154.179688 222.367188 155.109375 222.292969 154.675781 222.527344 L 165.710938 218.90625 C 168.136719 218.34375 170.59375 218.015625 173.082031 217.917969 C 175.566406 217.820312 178.042969 217.957031 180.503906 218.328125 C 182.964844 218.699219 185.371094 219.292969 187.71875 220.117188 C 190.066406 220.941406 192.316406 221.976562 194.472656 223.222656 C 206.257812 230.101562 214.214844 243.996094 214.695312 257.574219 C 214.695312 257.066406 214.988281 257.941406 214.695312 257.574219 C 214.636719 260.882812 215.40625 263.980469 217.011719 266.871094 C 218.617188 269.765625 220.839844 272.066406 223.675781 273.769531 C 224.742188 274.433594 225.863281 274.980469 227.035156 275.417969 C 228.210938 275.855469 229.417969 276.171875 230.65625 276.367188 C 231.894531 276.566406 233.140625 276.636719 234.394531 276.585938 C 235.644531 276.53125 236.882812 276.355469 238.097656 276.058594 C 239.3125 275.757812 240.484375 275.339844 241.613281 274.804688 C 242.746094 274.269531 243.8125 273.628906 244.8125 272.878906 C 245.816406 272.128906 246.734375 271.289062 247.566406 270.355469 C 248.398438 269.421875 249.132812 268.417969 249.765625 267.335938 C 250.394531 266.253906 250.914062 265.121094 251.316406 263.9375 C 251.71875 262.753906 252 261.539062 252.160156 260.296875 C 252.320312 259.054688 252.355469 257.8125 252.261719 256.5625 C 252.171875 255.316406 251.957031 254.089844 251.617188 252.886719 C 251.28125 251.675781 250.828125 250.515625 250.257812 249.398438 C 249.6875 248.28125 249.011719 247.230469 248.230469 246.25 C 247.453125 245.269531 246.582031 244.375 245.621094 243.570312 C 244.664062 242.761719 243.632812 242.058594 242.535156 241.457031 C 240.371094 240.183594 238.347656 238.714844 236.464844 237.058594 C 234.582031 235.398438 232.871094 233.578125 231.332031 231.59375 C 229.792969 229.609375 228.457031 227.496094 227.316406 225.257812 C 226.179688 223.019531 225.261719 220.695312 224.5625 218.28125 L 223.261719 213.105469 C 222.882812 211.121094 222.617188 209.113281 222.460938 207.097656 C 222.589844 203.816406 221.820312 200.550781 220.234375 197.667969 C 219.9375 197.128906 219.617188 196.605469 219.265625 196.101562 C 218.917969 195.597656 218.546875 195.109375 218.148438 194.640625 C 217.75 194.175781 217.328125 193.726562 216.886719 193.304688 C 216.441406 192.878906 215.980469 192.476562 215.496094 192.097656 C 215.011719 191.722656 214.511719 191.367188 213.992188 191.042969 C 213.472656 190.714844 212.9375 190.414062 212.386719 190.140625 C 211.835938 189.867188 211.273438 189.625 210.699219 189.410156 C 210.125 189.191406 209.539062 189.007812 208.945312 188.851562 C 208.355469 188.691406 207.753906 188.566406 207.148438 188.472656 C 206.539062 188.375 205.929688 188.308594 205.316406 188.277344 C 204.703125 188.242188 204.089844 188.238281 203.476562 188.265625 C 202.863281 188.292969 202.253906 188.355469 201.644531 188.441406 C 201.039062 188.53125 200.4375 188.652344 199.839844 188.804688 C 199.246094 188.953125 198.660156 189.136719 198.082031 189.34375 C 197.503906 189.554688 196.9375 189.792969 196.386719 190.0625 C 195.832031 190.328125 195.292969 190.621094 194.769531 190.945312 C 195.117188 190.96875 194.476562 191.113281 194.769531 190.945312 C 191.691406 192.546875 188.464844 193.746094 185.089844 194.542969 C 181.714844 195.34375 178.296875 195.71875 174.828125 195.664062 C 171.355469 195.613281 167.941406 195.140625 164.585938 194.242188 C 161.234375 193.34375 158.039062 192.050781 155.003906 190.363281 Z M 253.148438 223.375 C 249.941406 221.503906 247.355469 218.722656 245.726562 215.390625 C 244.914062 213.726562 244.359375 211.980469 244.0625 210.152344 C 243.765625 208.320312 243.742188 206.488281 243.988281 204.652344 C 244.113281 203.738281 244.300781 202.839844 244.558594 201.957031 C 244.816406 201.070312 245.136719 200.210938 245.519531 199.371094 C 245.902344 198.535156 246.34375 197.730469 246.847656 196.960938 C 247.351562 196.1875 247.90625 195.457031 248.519531 194.769531 C 249.128906 194.078125 249.789062 193.4375 250.492188 192.847656 C 251.199219 192.253906 251.945312 191.71875 252.730469 191.238281 C 253.515625 190.753906 254.328125 190.335938 255.175781 189.972656 C 256.023438 189.613281 256.894531 189.316406 257.785156 189.085938 C 258.675781 188.855469 259.582031 188.6875 260.5 188.589844 C 261.417969 188.492188 262.335938 188.457031 263.257812 188.496094 C 264.183594 188.53125 265.097656 188.632812 266.003906 188.804688 C 266.910156 188.972656 267.800781 189.210938 268.671875 189.511719 C 269.542969 189.8125 270.386719 190.171875 271.207031 190.597656 C 272.023438 191.023438 272.808594 191.507812 273.554688 192.046875 C 274.304688 192.585938 275.007812 193.179688 275.667969 193.824219 C 276.328125 194.464844 276.9375 195.15625 277.5 195.890625 C 278.621094 197.363281 279.507812 198.96875 280.15625 200.707031 C 280.804688 202.441406 281.183594 204.238281 281.300781 206.089844 C 281.367188 207.160156 281.339844 208.230469 281.222656 209.300781 C 281.105469 210.367188 280.894531 211.417969 280.597656 212.449219 C 280.296875 213.484375 279.910156 214.480469 279.4375 215.449219 C 278.96875 216.414062 278.417969 217.332031 277.785156 218.203125 C 277.15625 219.074219 276.453125 219.882812 275.683594 220.632812 C 274.914062 221.382812 274.085938 222.0625 273.199219 222.667969 C 272.3125 223.273438 271.378906 223.800781 270.402344 224.246094 C 269.421875 224.691406 268.414062 225.046875 267.375 225.320312 C 264.96875 225.949219 262.53125 226.09375 260.066406 225.757812 C 257.601562 225.421875 255.296875 224.625 253.148438 223.375 Z M 191.207031 165.566406 C 189.339844 168.761719 186.566406 171.335938 183.234375 172.953125 C 181.566406 173.765625 179.816406 174.316406 177.984375 174.605469 C 176.152344 174.898438 174.320312 174.917969 172.484375 174.664062 C 171.570312 174.539062 170.671875 174.347656 169.785156 174.089844 C 168.898438 173.832031 168.035156 173.507812 167.199219 173.125 C 166.359375 172.738281 165.554688 172.296875 164.78125 171.792969 C 164.007812 171.289062 163.273438 170.730469 162.582031 170.121094 C 161.894531 169.507812 161.25 168.851562 160.65625 168.144531 C 160.0625 167.4375 159.519531 166.695312 159.035156 165.910156 C 158.550781 165.125 158.125 164.308594 157.761719 163.457031 C 157.394531 162.609375 157.09375 161.742188 156.855469 160.847656 C 156.621094 159.960938 156.449219 159.058594 156.347656 158.144531 C 156.242188 157.226562 156.207031 156.3125 156.242188 155.390625 C 156.273438 154.46875 156.375 153.558594 156.542969 152.652344 C 156.707031 151.746094 156.941406 150.859375 157.242188 149.988281 C 157.542969 149.117188 157.902344 148.273438 158.328125 147.453125 C 158.75 146.636719 159.234375 145.855469 159.773438 145.109375 C 160.3125 144.363281 160.90625 143.660156 161.550781 143.003906 C 162.195312 142.34375 162.882812 141.738281 163.617188 141.179688 C 165.09375 140.058594 166.703125 139.179688 168.445312 138.535156 C 170.183594 137.894531 171.980469 137.519531 173.828125 137.410156 C 174.90625 137.347656 175.980469 137.375 177.050781 137.496094 C 178.121094 137.617188 179.171875 137.828125 180.207031 138.128906 C 181.238281 138.429688 182.238281 138.816406 183.207031 139.292969 C 184.175781 139.765625 185.09375 140.316406 185.96875 140.949219 C 186.839844 141.578125 187.652344 142.28125 188.40625 143.050781 C 189.15625 143.824219 189.835938 144.652344 190.449219 145.539062 C 191.058594 146.425781 191.585938 147.359375 192.035156 148.339844 C 192.488281 149.320312 192.851562 150.328125 193.125 151.371094 C 193.761719 153.769531 193.914062 156.199219 193.585938 158.660156 C 193.253906 161.121094 192.460938 163.425781 191.214844 165.570312 Z M 242.917969 140.292969 C 246.125 142.164062 248.707031 144.9375 250.335938 148.269531 C 251.152344 149.933594 251.707031 151.679688 252.003906 153.507812 C 252.300781 155.339844 252.328125 157.171875 252.078125 159.011719 C 251.957031 159.921875 251.765625 160.820312 251.511719 161.707031 C 251.253906 162.589844 250.933594 163.453125 250.550781 164.289062 C 250.167969 165.128906 249.722656 165.933594 249.222656 166.703125 C 248.71875 167.476562 248.160156 168.207031 247.550781 168.898438 C 246.9375 169.585938 246.28125 170.226562 245.574219 170.820312 C 244.871094 171.410156 244.125 171.945312 243.339844 172.429688 C 242.554688 172.910156 241.738281 173.332031 240.890625 173.691406 C 240.042969 174.050781 239.171875 174.347656 238.28125 174.578125 C 237.390625 174.8125 236.484375 174.976562 235.566406 175.078125 C 234.648438 175.175781 233.726562 175.207031 232.804688 175.171875 C 231.882812 175.136719 230.96875 175.03125 230.0625 174.863281 C 229.15625 174.691406 228.265625 174.457031 227.394531 174.15625 C 226.519531 173.855469 225.675781 173.492188 224.855469 173.066406 C 224.039062 172.640625 223.253906 172.160156 222.507812 171.617188 C 221.757812 171.078125 221.054688 170.484375 220.394531 169.839844 C 219.734375 169.195312 219.125 168.507812 218.5625 167.773438 C 217.441406 166.300781 216.554688 164.695312 215.90625 162.957031 C 215.257812 161.21875 214.878906 159.425781 214.761719 157.574219 C 214.648438 155.726562 214.800781 153.902344 215.230469 152.101562 C 215.65625 150.300781 216.335938 148.597656 217.269531 147 C 218.527344 144.855469 220.140625 143.035156 222.121094 141.535156 C 224.101562 140.035156 226.289062 138.972656 228.691406 138.347656 C 231.097656 137.71875 233.535156 137.570312 236 137.910156 C 238.464844 138.246094 240.773438 139.042969 242.921875 140.292969 Z M 242.917969 140.292969 " fill-opacity="1" fill-rule="nonzero"/></g></g></g></g><g clip-path="url(#6fae45ca24)"><g clip-path="url(#67fdf2ec7d)"><g clip-path="url(#e114c62d90)"><g clip-path="url(#a4fe8fd711)"><path fill="#6366f1" d="M 190.886719 266.734375 C 189.019531 269.933594 186.246094 272.5 182.914062 274.121094 C 181.246094 274.933594 179.496094 275.484375 177.664062 275.773438 C 175.832031 276.066406 173.996094 276.082031 172.160156 275.832031 C 171.246094 275.703125 170.347656 275.511719 169.460938 275.253906 C 168.574219 274.996094 167.714844 274.675781 166.875 274.289062 C 166.039062 273.902344 165.230469 273.460938 164.457031 272.957031 C 163.6875 272.453125 162.953125 271.894531 162.261719 271.285156 C 161.570312 270.675781 160.929688 270.015625 160.335938 269.308594 C 159.742188 268.605469 159.199219 267.859375 158.714844 267.074219 C 158.230469 266.289062 157.804688 265.472656 157.441406 264.625 C 157.074219 263.777344 156.773438 262.90625 156.535156 262.015625 C 156.300781 261.125 156.132812 260.226562 156.03125 259.308594 C 155.929688 258.394531 155.894531 257.476562 155.929688 256.558594 C 155.960938 255.640625 156.0625 254.726562 156.230469 253.820312 C 156.398438 252.917969 156.632812 252.027344 156.933594 251.15625 C 157.230469 250.289062 157.59375 249.445312 158.015625 248.625 C 158.441406 247.808594 158.921875 247.027344 159.460938 246.28125 C 160 245.535156 160.589844 244.832031 161.234375 244.171875 C 161.875 243.511719 162.566406 242.90625 163.296875 242.347656 C 164.773438 241.226562 166.382812 240.347656 168.121094 239.707031 C 169.859375 239.0625 171.65625 238.6875 173.503906 238.578125 C 174.578125 238.515625 175.652344 238.542969 176.722656 238.664062 C 177.792969 238.785156 178.84375 238.996094 179.875 239.296875 C 180.910156 239.601562 181.910156 239.988281 182.878906 240.460938 C 183.84375 240.933594 184.761719 241.484375 185.636719 242.117188 C 186.507812 242.746094 187.320312 243.449219 188.070312 244.21875 C 188.824219 244.988281 189.503906 245.820312 190.113281 246.707031 C 190.722656 247.59375 191.253906 248.527344 191.703125 249.503906 C 192.152344 250.484375 192.515625 251.496094 192.792969 252.535156 C 193.429688 254.933594 193.582031 257.363281 193.25 259.824219 C 192.921875 262.28125 192.132812 264.585938 190.886719 266.734375 Z M 190.886719 266.734375 " fill-opacity="1" fill-rule="nonzero"/></g></g></g></g><g clip-path="url(#927442010c)"><g clip-path="url(#fc189724d1)"><g clip-path="url(#8cec525232)"><g clip-path="url(#d8e1330cb1)"><path fill="#6366f1" d="M 253.324219 223.117188 C 254.402344 223.753906 255.53125 224.28125 256.714844 224.691406 C 257.898438 225.105469 259.109375 225.398438 260.351562 225.566406 C 261.59375 225.738281 262.839844 225.785156 264.09375 225.707031 C 265.34375 225.628906 266.574219 225.425781 267.785156 225.101562 C 268.992188 224.777344 270.15625 224.335938 271.277344 223.777344 C 272.394531 223.21875 273.449219 222.554688 274.433594 221.785156 C 275.421875 221.011719 276.320312 220.152344 277.132812 219.203125 C 277.949219 218.253906 278.660156 217.230469 279.269531 216.136719 C 279.878906 215.042969 280.371094 213.898438 280.75 212.707031 C 281.128906 211.515625 281.386719 210.296875 281.519531 209.050781 C 281.652344 207.804688 281.660156 206.5625 281.542969 205.316406 C 281.425781 204.070312 281.1875 202.847656 280.824219 201.652344 C 280.460938 200.449219 279.984375 199.296875 279.390625 198.191406 C 278.796875 197.089844 278.101562 196.054688 277.300781 195.089844 C 276.5 194.125 275.613281 193.246094 274.636719 192.460938 C 273.660156 191.675781 272.617188 190.992188 271.503906 190.414062 C 268.640625 188.871094 265.417969 188.097656 262.164062 188.199219 C 258.910156 188.292969 255.746094 189.242188 252.988281 190.953125 C 253.484375 191.101562 252.558594 191.195312 252.988281 190.953125 L 242.03125 194.800781 C 239.617188 195.414062 237.167969 195.792969 234.683594 195.941406 C 232.195312 196.089844 229.71875 196.003906 227.25 195.6875 C 224.785156 195.367188 222.367188 194.820312 220 194.046875 C 217.636719 193.273438 215.363281 192.28125 213.1875 191.078125 C 201.257812 184.449219 193.015625 170.71875 192.253906 157.15625 C 192.265625 157.664062 191.953125 156.792969 192.253906 157.15625 C 192.246094 153.847656 191.410156 150.765625 189.746094 147.910156 C 188.082031 145.046875 185.8125 142.792969 182.941406 141.148438 C 181.863281 140.507812 180.730469 139.984375 179.546875 139.570312 C 178.363281 139.15625 177.152344 138.867188 175.910156 138.695312 C 174.667969 138.523438 173.421875 138.476562 172.167969 138.554688 C 170.917969 138.632812 169.6875 138.835938 168.472656 139.160156 C 167.265625 139.484375 166.105469 139.925781 164.984375 140.484375 C 163.867188 141.042969 162.8125 141.707031 161.828125 142.476562 C 160.839844 143.246094 159.941406 144.105469 159.128906 145.058594 C 158.3125 146.007812 157.601562 147.027344 156.992188 148.121094 C 156.382812 149.214844 155.890625 150.359375 155.511719 151.550781 C 155.132812 152.746094 154.875 153.964844 154.742188 155.207031 C 154.609375 156.453125 154.601562 157.695312 154.71875 158.941406 C 154.835938 160.1875 155.074219 161.410156 155.4375 162.605469 C 155.800781 163.808594 156.277344 164.960938 156.871094 166.066406 C 157.464844 167.171875 158.160156 168.207031 158.960938 169.171875 C 159.761719 170.136719 160.648438 171.011719 161.625 171.796875 C 162.601562 172.585938 163.644531 173.265625 164.757812 173.84375 C 166.945312 175.074219 168.996094 176.5 170.914062 178.117188 C 172.832031 179.738281 174.582031 181.523438 176.160156 183.476562 C 177.738281 185.429688 179.121094 187.511719 180.304688 189.726562 C 181.488281 191.9375 182.457031 194.246094 183.203125 196.644531 L 184.609375 201.792969 C 185.03125 203.769531 185.339844 205.769531 185.539062 207.78125 C 185.472656 211.066406 186.3125 214.316406 187.957031 217.164062 C 188.265625 217.695312 188.597656 218.210938 188.957031 218.710938 C 189.316406 219.207031 189.699219 219.6875 190.105469 220.144531 C 190.515625 220.605469 190.945312 221.042969 191.394531 221.457031 C 191.847656 221.875 192.320312 222.265625 192.8125 222.632812 C 193.300781 223 193.8125 223.34375 194.335938 223.660156 C 194.863281 223.976562 195.402344 224.265625 195.960938 224.527344 C 196.515625 224.785156 197.082031 225.019531 197.660156 225.222656 C 198.238281 225.425781 198.828125 225.601562 199.425781 225.746094 C 200.019531 225.890625 200.625 226.003906 201.230469 226.085938 C 201.839844 226.171875 202.453125 226.222656 203.066406 226.246094 C 203.679688 226.265625 204.292969 226.257812 204.90625 226.214844 C 205.519531 226.175781 206.125 226.105469 206.734375 226 C 207.339844 225.898438 207.9375 225.765625 208.53125 225.605469 C 209.121094 225.441406 209.703125 225.25 210.277344 225.027344 C 210.851562 224.804688 211.410156 224.554688 211.957031 224.273438 C 212.507812 223.996094 213.039062 223.691406 213.554688 223.359375 C 213.207031 223.339844 213.84375 223.183594 213.554688 223.359375 C 216.597656 221.695312 219.800781 220.425781 223.15625 219.558594 C 226.515625 218.691406 229.925781 218.246094 233.394531 218.226562 C 236.867188 218.207031 240.289062 218.609375 243.664062 219.4375 C 247.035156 220.265625 250.253906 221.492188 253.324219 223.117188 Z M 154.519531 192.144531 C 157.761719 193.949219 160.40625 196.671875 162.101562 199.972656 C 162.953125 201.621094 163.542969 203.355469 163.875 205.175781 C 164.210938 207 164.273438 208.832031 164.0625 210.671875 C 163.957031 211.589844 163.789062 212.492188 163.550781 213.378906 C 163.3125 214.269531 163.007812 215.136719 162.644531 215.980469 C 162.277344 216.828125 161.851562 217.640625 161.363281 218.421875 C 160.878906 219.203125 160.335938 219.945312 159.738281 220.648438 C 159.144531 221.351562 158.496094 222.003906 157.804688 222.609375 C 157.113281 223.214844 156.378906 223.769531 155.601562 224.265625 C 154.828125 224.761719 154.019531 225.199219 153.179688 225.578125 C 152.34375 225.957031 151.480469 226.269531 150.59375 226.519531 C 149.707031 226.769531 148.804688 226.953125 147.886719 227.074219 C 146.972656 227.191406 146.054688 227.242188 145.132812 227.226562 C 144.207031 227.207031 143.292969 227.125 142.382812 226.972656 C 141.472656 226.820312 140.578125 226.605469 139.699219 226.320312 C 138.820312 226.039062 137.96875 225.695312 137.140625 225.285156 C 136.316406 224.878906 135.523438 224.410156 134.761719 223.886719 C 134.003906 223.363281 133.289062 222.785156 132.613281 222.15625 C 131.941406 221.523438 131.316406 220.847656 130.742188 220.128906 C 129.589844 218.675781 128.667969 217.089844 127.988281 215.367188 C 127.304688 213.644531 126.882812 211.855469 126.730469 210.007812 C 126.640625 208.9375 126.644531 207.867188 126.742188 206.796875 C 126.835938 205.726562 127.023438 204.671875 127.300781 203.632812 C 127.582031 202.59375 127.945312 201.589844 128.398438 200.613281 C 128.847656 199.636719 129.382812 198.707031 129.992188 197.824219 C 130.605469 196.941406 131.289062 196.117188 132.042969 195.351562 C 132.796875 194.585938 133.613281 193.890625 134.488281 193.265625 C 135.363281 192.640625 136.28125 192.09375 137.25 191.628906 C 138.21875 191.164062 139.21875 190.785156 140.253906 190.492188 C 142.648438 189.816406 145.082031 189.617188 147.550781 189.90625 C 150.023438 190.191406 152.34375 190.9375 154.519531 192.144531 Z M 217.644531 248.65625 C 219.441406 245.421875 222.164062 242.792969 225.460938 241.105469 C 227.113281 240.261719 228.851562 239.675781 230.675781 239.34375 C 232.5 239.015625 234.332031 238.957031 236.171875 239.171875 C 237.089844 239.28125 237.992188 239.453125 238.882812 239.691406 C 239.777344 239.933594 240.644531 240.238281 241.492188 240.605469 C 242.335938 240.972656 243.152344 241.398438 243.933594 241.886719 C 244.71875 242.375 245.460938 242.914062 246.164062 243.511719 C 246.871094 244.109375 247.527344 244.753906 248.136719 245.449219 C 248.742188 246.140625 249.300781 246.875 249.800781 247.648438 C 250.300781 248.425781 250.742188 249.230469 251.125 250.074219 C 251.507812 250.914062 251.828125 251.777344 252.082031 252.664062 C 252.339844 253.546875 252.527344 254.445312 252.648438 255.359375 C 252.773438 256.269531 252.828125 257.1875 252.8125 258.109375 C 252.800781 259.027344 252.71875 259.941406 252.570312 260.851562 C 252.417969 261.761719 252.203125 262.652344 251.921875 263.53125 C 251.640625 264.40625 251.296875 265.257812 250.890625 266.085938 C 250.484375 266.910156 250.015625 267.703125 249.492188 268.460938 C 248.96875 269.214844 248.390625 269.929688 247.761719 270.601562 C 247.128906 271.273438 246.453125 271.894531 245.730469 272.46875 C 244.277344 273.617188 242.6875 274.53125 240.960938 275.210938 C 239.234375 275.890625 237.445312 276.300781 235.597656 276.449219 C 234.523438 276.535156 233.453125 276.527344 232.378906 276.429688 C 231.304688 276.332031 230.25 276.140625 229.210938 275.859375 C 228.167969 275.582031 227.160156 275.214844 226.183594 274.761719 C 225.207031 274.308594 224.277344 273.773438 223.390625 273.160156 C 222.503906 272.550781 221.679688 271.863281 220.910156 271.109375 C 220.144531 270.355469 219.445312 269.539062 218.816406 268.664062 C 218.1875 267.789062 217.640625 266.867188 217.167969 265.898438 C 216.699219 264.925781 216.316406 263.925781 216.019531 262.890625 C 215.332031 260.503906 215.128906 258.078125 215.410156 255.609375 C 215.6875 253.144531 216.433594 250.824219 217.636719 248.652344 Z M 166.464844 274.996094 C 163.222656 273.191406 160.582031 270.46875 158.882812 267.171875 C 158.035156 265.527344 157.441406 263.792969 157.105469 261.96875 C 156.773438 260.148438 156.710938 258.3125 156.917969 256.472656 C 157.023438 255.558594 157.195312 254.652344 157.433594 253.765625 C 157.667969 252.875 157.972656 252.007812 158.339844 251.160156 C 158.703125 250.316406 159.132812 249.503906 159.617188 248.71875 C 160.105469 247.9375 160.644531 247.195312 161.242188 246.492188 C 161.839844 245.792969 162.484375 245.136719 163.175781 244.53125 C 163.871094 243.925781 164.605469 243.375 165.378906 242.875 C 166.15625 242.378906 166.960938 241.941406 167.800781 241.5625 C 168.640625 241.183594 169.503906 240.871094 170.390625 240.621094 C 171.28125 240.371094 172.179688 240.1875 173.097656 240.066406 C 174.011719 239.949219 174.933594 239.898438 175.855469 239.914062 C 176.777344 239.933594 177.695312 240.015625 178.605469 240.167969 C 179.515625 240.320312 180.410156 240.535156 181.285156 240.820312 C 182.164062 241.101562 183.019531 241.445312 183.84375 241.855469 C 184.671875 242.261719 185.464844 242.730469 186.222656 243.253906 C 186.984375 243.78125 187.699219 244.359375 188.375 244.988281 C 189.046875 245.617188 189.671875 246.292969 190.246094 247.015625 C 191.398438 248.464844 192.320312 250.054688 193.003906 251.777344 C 193.683594 253.5 194.105469 255.285156 194.257812 257.136719 C 194.410156 258.980469 194.292969 260.808594 193.902344 262.617188 C 193.515625 264.425781 192.867188 266.140625 191.96875 267.761719 C 190.757812 269.929688 189.179688 271.78125 187.234375 273.324219 C 185.285156 274.863281 183.117188 275.972656 180.730469 276.648438 C 178.335938 277.324219 175.902344 277.523438 173.429688 277.234375 C 170.960938 276.949219 168.636719 276.203125 166.460938 274.996094 Z M 166.464844 274.996094 " fill-opacity="1" fill-rule="nonzero"/></g></g></g></g><g clip-path="url(#ad4147bdcc)"><g clip-path="url(#0ca00fdaa4)"><g clip-path="url(#fab9dcfe63)"><g clip-path="url(#9baa4e3889)"><path fill="#6366f1" d="M 215.871094 147.503906 C 217.671875 144.265625 220.390625 141.640625 223.6875 139.953125 C 225.339844 139.109375 227.078125 138.523438 228.902344 138.191406 C 230.726562 137.863281 232.5625 137.808594 234.402344 138.023438 C 235.320312 138.128906 236.222656 138.304688 237.113281 138.542969 C 238.003906 138.785156 238.875 139.085938 239.71875 139.453125 C 240.566406 139.820312 241.378906 140.25 242.164062 140.738281 C 242.945312 141.222656 243.6875 141.765625 244.394531 142.363281 C 245.097656 142.960938 245.753906 143.605469 246.363281 144.296875 C 246.96875 144.992188 247.523438 145.722656 248.027344 146.5 C 248.527344 147.273438 248.96875 148.082031 249.351562 148.921875 C 249.734375 149.761719 250.054688 150.625 250.308594 151.511719 C 250.5625 152.394531 250.75 153.292969 250.871094 154.207031 C 250.992188 155.117188 251.046875 156.035156 251.03125 156.953125 C 251.015625 157.875 250.933594 158.789062 250.785156 159.699219 C 250.636719 160.605469 250.421875 161.5 250.140625 162.375 C 249.859375 163.25 249.515625 164.101562 249.105469 164.929688 C 248.699219 165.753906 248.234375 166.546875 247.710938 167.304688 C 247.1875 168.0625 246.613281 168.777344 245.984375 169.449219 C 245.355469 170.121094 244.679688 170.742188 243.957031 171.316406 C 242.503906 172.464844 240.914062 173.378906 239.1875 174.054688 C 237.464844 174.734375 235.679688 175.148438 233.832031 175.292969 C 232.757812 175.378906 231.683594 175.375 230.613281 175.273438 C 229.539062 175.175781 228.484375 174.988281 227.445312 174.707031 C 226.40625 174.425781 225.398438 174.058594 224.421875 173.605469 C 223.445312 173.152344 222.515625 172.621094 221.628906 172.007812 C 220.742188 171.394531 219.917969 170.710938 219.148438 169.957031 C 218.382812 169.203125 217.683594 168.386719 217.054688 167.511719 C 216.429688 166.636719 215.878906 165.714844 215.410156 164.746094 C 214.941406 163.777344 214.554688 162.773438 214.257812 161.738281 C 213.574219 159.355469 213.371094 156.929688 213.648438 154.464844 C 213.929688 151.996094 214.667969 149.675781 215.871094 147.503906 Z M 215.871094 147.503906 " fill-opacity="1" fill-rule="nonzero"/></g></g></g></g></svg>